<svg width="137" height="115" viewBox="0 0 137 115" fill="none" xmlns="http://www.w3.org/2000/svg">
<path d="M4.49533 33.7043C4.49533 34.9762 3.66597 35.9301 2.56016 35.9301C1.45436 35.9301 0.625 34.9762 0.625 33.7043C0.625 32.4324 1.45436 31.4785 2.56016 31.4785C3.66597 31.4785 4.49533 32.5384 4.49533 33.7043Z" fill="#FFCF2D"/>
<path d="M20.9904 33.7042C20.9904 34.9761 20.1611 35.9299 19.0553 35.9299C17.9495 35.9299 17.1201 34.9761 17.1201 33.7042C17.1201 32.4324 17.9495 31.4785 19.0553 31.4785C20.0689 31.4785 20.9904 32.5384 20.9904 33.7042Z" fill="#FFCF2D"/>
<path d="M37.3933 33.7043C37.3933 34.9762 36.5639 35.9301 35.4581 35.9301C34.3523 35.9301 33.5229 34.9762 33.5229 33.7043C33.5229 32.4324 34.3523 31.4785 35.4581 31.4785C36.5639 31.4785 37.3933 32.5384 37.3933 33.7043Z" fill="#FFCF2D"/>
<path d="M53.8879 33.7043C53.8879 34.9762 53.0586 35.9301 51.9527 35.9301C50.8469 35.9301 50.0176 34.9762 50.0176 33.7043C50.0176 32.4324 50.8469 31.4785 51.9527 31.4785C53.0586 31.4785 53.8879 32.5384 53.8879 33.7043Z" fill="#FFCF2D"/>
<path d="M70.383 33.7043C70.383 34.9762 69.5536 35.9301 68.4478 35.9301C67.342 35.9301 66.5127 34.9762 66.5127 33.7043C66.5127 32.4324 67.342 31.4785 68.4478 31.4785C69.4615 31.4785 70.383 32.5384 70.383 33.7043Z" fill="#FFCF2D"/>
<path d="M86.8781 33.7043C86.8781 34.9762 86.0488 35.9301 84.943 35.9301C83.8372 35.9301 83.0078 34.9762 83.0078 33.7043C83.0078 32.4324 83.8372 31.4785 84.943 31.4785C86.0488 31.4785 86.8781 32.5384 86.8781 33.7043Z" fill="#FFCF2D"/>
<path d="M103.281 33.7043C103.281 34.9762 102.452 35.9301 101.346 35.9301C100.24 35.9301 99.4106 34.9762 99.4106 33.7043C99.4106 32.4324 100.24 31.4785 101.346 31.4785C102.452 31.4785 103.281 32.5384 103.281 33.7043Z" fill="#FFCF2D"/>
<path d="M119.776 33.7043C119.776 34.9762 118.947 35.9301 117.841 35.9301C116.735 35.9301 115.906 34.9762 115.906 33.7043C115.906 32.4324 116.735 31.4785 117.841 31.4785C118.947 31.4785 119.776 32.5384 119.776 33.7043Z" fill="#FFCF2D"/>
<path d="M136.271 33.7042C136.271 34.9761 135.441 35.9299 134.336 35.9299C133.23 35.9299 132.4 34.9761 132.4 33.7042C132.4 32.4324 133.23 31.4785 134.336 31.4785C135.349 31.4785 136.271 32.5384 136.271 33.7042Z" fill="#FFCF2D"/>
<path d="M4.49533 49.4974C4.49533 50.7693 3.66597 51.7233 2.56016 51.7233C1.45436 51.7233 0.625 50.7693 0.625 49.4974C0.625 48.2254 1.45436 47.2715 2.56016 47.2715C3.66597 47.2715 4.49533 48.2254 4.49533 49.4974Z" fill="#FFCF2D"/>
<path d="M20.9904 49.4973C20.9904 50.7692 20.1611 51.7231 19.0553 51.7231C17.9495 51.7231 17.1201 50.7692 17.1201 49.4973C17.1201 48.2254 17.9495 47.2715 19.0553 47.2715C20.0689 47.2715 20.9904 48.2254 20.9904 49.4973Z" fill="#FFCF2D"/>
<path d="M37.3933 49.4974C37.3933 50.7693 36.5639 51.7233 35.4581 51.7233C34.3523 51.7233 33.5229 50.7693 33.5229 49.4974C33.5229 48.2254 34.3523 47.2715 35.4581 47.2715C36.5639 47.2715 37.3933 48.2254 37.3933 49.4974Z" fill="#FFCF2D"/>
<path d="M53.8884 49.4974C53.8884 50.7693 53.059 51.7233 51.9532 51.7233C50.8474 51.7233 50.0181 50.7693 50.0181 49.4974C50.0181 48.2254 50.8474 47.2715 51.9532 47.2715C53.059 47.2715 53.8884 48.2254 53.8884 49.4974Z" fill="#FFCF2D"/>
<path d="M70.383 49.4974C70.383 50.7693 69.5537 51.7233 68.4479 51.7233C67.3421 51.7233 66.5127 50.7693 66.5127 49.4974C66.5127 48.2254 67.3421 47.2715 68.4479 47.2715C69.4615 47.2715 70.383 48.2254 70.383 49.4974Z" fill="#FFCF2D"/>
<path d="M86.8781 49.4974C86.8781 50.7693 86.0488 51.7233 84.943 51.7233C83.8372 51.7233 83.0078 50.7693 83.0078 49.4974C83.0078 48.2254 83.8372 47.2715 84.943 47.2715C86.0488 47.2715 86.8781 48.2254 86.8781 49.4974Z" fill="#FFCF2D"/>
<path d="M103.281 49.4974C103.281 50.7693 102.452 51.7233 101.346 51.7233C100.24 51.7233 99.4106 50.7693 99.4106 49.4974C99.4106 48.2254 100.24 47.2715 101.346 47.2715C102.452 47.2715 103.281 48.2254 103.281 49.4974Z" fill="#FFCF2D"/>
<path d="M119.776 49.4974C119.776 50.7693 118.947 51.7233 117.841 51.7233C116.735 51.7233 115.906 50.7693 115.906 49.4974C115.906 48.2254 116.735 47.2715 117.841 47.2715C118.947 47.2715 119.776 48.2254 119.776 49.4974Z" fill="#FFCF2D"/>
<path d="M136.271 49.4973C136.271 50.7692 135.441 51.7231 134.336 51.7231C133.23 51.7231 132.4 50.7692 132.4 49.4973C132.4 48.2254 133.23 47.2715 134.336 47.2715C135.349 47.2715 136.271 48.2254 136.271 49.4973Z" fill="#FFCF2D"/>
<path d="M4.49533 2.22583C4.49533 3.49773 3.66597 4.45166 2.56016 4.45166C1.45436 4.45166 0.625 3.49773 0.625 2.22583C0.625 0.953927 1.45436 0 2.56016 0C3.66597 0 4.49533 0.953927 4.49533 2.22583Z" fill="#FFCF2D"/>
<path d="M20.9904 2.22583C20.9904 3.49773 20.1611 4.45166 19.0553 4.45166C17.9495 4.45166 17.1201 3.49773 17.1201 2.22583C17.1201 0.953927 17.9495 0 19.0553 0C20.0689 0 20.9904 0.953927 20.9904 2.22583Z" fill="#FFCF2D"/>
<path d="M37.3933 2.22583C37.3933 3.49773 36.5639 4.45166 35.4581 4.45166C34.3523 4.45166 33.5229 3.49773 33.5229 2.22583C33.5229 0.953927 34.4445 0 35.4581 0C36.5639 0 37.3933 0.953927 37.3933 2.22583Z" fill="#FFCF2D"/>
<path d="M53.8884 2.22583C53.8884 3.49773 53.059 4.45166 51.9532 4.45166C50.8474 4.45166 50.0181 3.49773 50.0181 2.22583C50.0181 0.953927 50.9396 0 51.9532 0C52.9669 0 53.8884 0.953927 53.8884 2.22583Z" fill="#FFCF2D"/>
<path d="M70.383 2.22583C70.383 3.49773 69.5537 4.45166 68.4479 4.45166C67.342 4.45166 66.5127 3.49773 66.5127 2.22583C66.5127 0.953927 67.342 0 68.4479 0C69.4615 0 70.383 0.953927 70.383 2.22583Z" fill="#FFCF2D"/>
<path d="M86.8781 2.22583C86.8781 3.49773 86.0488 4.45166 84.943 4.45166C83.8372 4.45166 83.0078 3.49773 83.0078 2.22583C83.0078 0.953927 83.8372 0 84.943 0C86.0488 0 86.8781 0.953927 86.8781 2.22583Z" fill="#FFCF2D"/>
<path d="M103.281 2.22577C103.281 3.49764 102.452 4.45154 101.346 4.45154C100.24 4.45154 99.4106 3.49764 99.4106 2.22577C99.4106 0.953901 100.24 0 101.346 0C102.452 0 103.281 0.953901 103.281 2.22577Z" fill="#FFCF2D"/>
<path d="M119.776 2.22583C119.776 3.49773 118.947 4.45166 117.841 4.45166C116.735 4.45166 115.906 3.49773 115.906 2.22583C115.906 0.953927 116.735 0 117.841 0C118.947 0 119.776 0.953927 119.776 2.22583Z" fill="#FFCF2D"/>
<path d="M136.271 2.22583C136.271 3.49773 135.441 4.45166 134.336 4.45166C133.23 4.45166 132.4 3.49773 132.4 2.22583C132.4 0.953927 133.23 0 134.336 0C135.349 0 136.271 0.953927 136.271 2.22583Z" fill="#FFCF2D"/>
<path d="M4.49534 18.0189C4.49534 19.2908 3.66598 20.2448 2.56017 20.2448C1.45436 20.2448 0.625 19.1848 0.625 18.0189C0.625 16.7469 1.45436 15.793 2.56017 15.793C3.66598 15.793 4.49534 16.7469 4.49534 18.0189Z" fill="#FFCF2D"/>
<path d="M20.9904 18.0189C20.9904 19.2908 20.1611 20.2448 19.0553 20.2448C17.9495 20.2448 17.1201 19.2908 17.1201 18.0189C17.1201 16.7469 17.9495 15.793 19.0553 15.793C20.0689 15.793 20.9904 16.7469 20.9904 18.0189Z" fill="#FFCF2D"/>
<path d="M37.3933 18.0189C37.3933 19.2908 36.5639 20.2448 35.4581 20.2448C34.3523 20.2448 33.5229 19.2908 33.5229 18.0189C33.5229 16.7469 34.3523 15.793 35.4581 15.793C36.5639 15.793 37.3933 16.7469 37.3933 18.0189Z" fill="#FFCF2D"/>
<path d="M53.8884 18.0188C53.8884 19.2907 53.059 20.2446 51.9532 20.2446C50.8474 20.2446 50.0181 19.2907 50.0181 18.0188C50.0181 16.7469 50.8474 15.793 51.9532 15.793C53.059 15.793 53.8884 16.7469 53.8884 18.0188Z" fill="#FFCF2D"/>
<path d="M70.383 18.0189C70.383 19.2908 69.5537 20.2448 68.4479 20.2448C67.3421 20.2448 66.5127 19.2908 66.5127 18.0189C66.5127 16.7469 67.3421 15.793 68.4479 15.793C69.4615 15.793 70.383 16.7469 70.383 18.0189Z" fill="#FFCF2D"/>
<path d="M86.8781 18.0189C86.8781 19.2908 86.0488 20.2448 84.943 20.2448C83.8372 20.2448 83.0078 19.2908 83.0078 18.0189C83.0078 16.7469 83.8372 15.793 84.943 15.793C86.0488 15.793 86.8781 16.7469 86.8781 18.0189Z" fill="#FFCF2D"/>
<path d="M103.281 18.0189C103.281 19.2908 102.452 20.2448 101.346 20.2448C100.24 20.2448 99.4106 19.2908 99.4106 18.0189C99.4106 16.7469 100.24 15.793 101.346 15.793C102.452 15.793 103.281 16.7469 103.281 18.0189Z" fill="#FFCF2D"/>
<path d="M119.776 18.0189C119.776 19.2908 118.947 20.2448 117.841 20.2448C116.735 20.2448 115.906 19.2908 115.906 18.0189C115.906 16.7469 116.735 15.793 117.841 15.793C118.947 15.793 119.776 16.7469 119.776 18.0189Z" fill="#FFCF2D"/>
<path d="M136.271 18.0189C136.271 19.2908 135.441 20.2448 134.336 20.2448C133.23 20.2448 132.4 19.2908 132.4 18.0189C132.4 16.7469 133.23 15.793 134.336 15.793C135.349 15.793 136.271 16.7469 136.271 18.0189Z" fill="#FFCF2D"/>
<path d="M4.49533 65.1848C4.49533 66.4566 3.66597 67.4105 2.56016 67.4105C1.45436 67.4105 0.625 66.4566 0.625 65.1848C0.625 63.9129 1.45436 62.959 2.56016 62.959C3.66597 62.959 4.49533 64.0189 4.49533 65.1848Z" fill="#FFCF2D"/>
<path d="M20.9905 65.1847C20.9905 66.4565 20.1611 67.4104 19.0553 67.4104C17.9495 67.4104 17.1201 66.4565 17.1201 65.1847C17.1201 63.9129 17.9495 62.959 19.0553 62.959C20.0689 62.959 20.9905 64.0188 20.9905 65.1847Z" fill="#FFCF2D"/>
<path d="M37.3933 65.1848C37.3933 66.4566 36.5639 67.4105 35.4581 67.4105C34.3523 67.4105 33.5229 66.4566 33.5229 65.1848C33.5229 63.9129 34.3523 62.959 35.4581 62.959C36.5639 62.959 37.3933 64.0189 37.3933 65.1848Z" fill="#FFCF2D"/>
<path d="M53.8884 65.1848C53.8884 66.4566 53.059 67.4105 51.9532 67.4105C50.8474 67.4105 50.0181 66.4566 50.0181 65.1848C50.0181 63.9129 50.8474 62.959 51.9532 62.959C53.059 62.959 53.8884 64.0189 53.8884 65.1848Z" fill="#FFCF2D"/>
<path d="M70.383 65.1848C70.383 66.4566 69.5537 67.4105 68.4479 67.4105C67.3421 67.4105 66.5127 66.4566 66.5127 65.1848C66.5127 63.9129 67.3421 62.959 68.4479 62.959C69.4615 62.959 70.383 64.0189 70.383 65.1848Z" fill="#FFCF2D"/>
<path d="M86.8781 65.1848C86.8781 66.4566 86.0488 67.4105 84.943 67.4105C83.8372 67.4105 83.0078 66.4566 83.0078 65.1848C83.0078 63.9129 83.8372 62.959 84.943 62.959C86.0488 62.959 86.8781 64.0189 86.8781 65.1848Z" fill="#FFCF2D"/>
<path d="M103.281 65.1848C103.281 66.4566 102.452 67.4105 101.346 67.4105C100.24 67.4105 99.4106 66.4566 99.4106 65.1848C99.4106 63.9129 100.24 62.959 101.346 62.959C102.452 62.959 103.281 64.0189 103.281 65.1848Z" fill="#FFCF2D"/>
<path d="M119.776 65.1848C119.776 66.4566 118.947 67.4105 117.841 67.4105C116.735 67.4105 115.906 66.4566 115.906 65.1848C115.906 63.9129 116.735 62.959 117.841 62.959C118.947 62.959 119.776 64.0189 119.776 65.1848Z" fill="#FFCF2D"/>
<path d="M136.271 65.1847C136.271 66.4565 135.441 67.4104 134.336 67.4104C133.23 67.4104 132.4 66.4565 132.4 65.1847C132.4 63.9129 133.23 62.959 134.336 62.959C135.349 62.959 136.271 64.0188 136.271 65.1847Z" fill="#FFCF2D"/>
<path d="M4.49533 80.9776C4.49533 82.2494 3.66597 83.2032 2.56016 83.2032C1.45436 83.2032 0.625 82.2494 0.625 80.9776C0.625 79.7058 1.45436 78.752 2.56016 78.752C3.66597 78.752 4.49533 79.7058 4.49533 80.9776Z" fill="#FFCF2D"/>
<path d="M20.9904 80.9777C20.9904 82.2495 20.1611 83.2034 19.0553 83.2034C17.9495 83.2034 17.1201 82.2495 17.1201 80.9777C17.1201 79.7058 17.9495 78.752 19.0553 78.752C20.0689 78.752 20.9904 79.7058 20.9904 80.9777Z" fill="#FFCF2D"/>
<path d="M37.3933 80.9777C37.3933 82.2495 36.5639 83.2034 35.4581 83.2034C34.3523 83.2034 33.5229 82.2495 33.5229 80.9777C33.5229 79.7058 34.3523 78.752 35.4581 78.752C36.5639 78.752 37.3933 79.7058 37.3933 80.9777Z" fill="#FFCF2D"/>
<path d="M51.9532 83.2034C53.022 83.2034 53.8884 82.2069 53.8884 80.9777C53.8884 79.7484 53.022 78.752 51.9532 78.752C50.8845 78.752 50.0181 79.7484 50.0181 80.9777C50.0181 82.2069 50.8845 83.2034 51.9532 83.2034Z" fill="#FFCF2D"/>
<path d="M70.383 80.9777C70.383 82.2495 69.5537 83.2034 68.4479 83.2034C67.3421 83.2034 66.5127 82.2495 66.5127 80.9777C66.5127 79.7058 67.3421 78.752 68.4479 78.752C69.4615 78.752 70.383 79.7058 70.383 80.9777Z" fill="#FFCF2D"/>
<path d="M86.8781 80.9777C86.8781 82.2495 86.0488 83.2034 84.943 83.2034C83.8372 83.2034 83.0078 82.2495 83.0078 80.9777C83.0078 79.7058 83.8372 78.752 84.943 78.752C86.0488 78.752 86.8781 79.7058 86.8781 80.9777Z" fill="#FFCF2D"/>
<path d="M103.281 80.9777C103.281 82.2495 102.452 83.2034 101.346 83.2034C100.24 83.2034 99.4106 82.2495 99.4106 80.9777C99.4106 79.7058 100.24 78.752 101.346 78.752C102.452 78.752 103.281 79.7058 103.281 80.9777Z" fill="#FFCF2D"/>
<path d="M117.841 83.2032C118.91 83.2032 119.776 82.2068 119.776 80.9776C119.776 79.7484 118.91 78.752 117.841 78.752C116.772 78.752 115.906 79.7484 115.906 80.9776C115.906 82.2068 116.772 83.2032 117.841 83.2032Z" fill="#FFCF2D"/>
<path d="M136.271 80.9777C136.271 82.2495 135.441 83.2034 134.336 83.2034C133.23 83.2034 132.4 82.2495 132.4 80.9777C132.4 79.7058 133.23 78.752 134.336 78.752C135.349 78.752 136.271 79.7058 136.271 80.9777Z" fill="#FFCF2D"/>
<path d="M4.49534 96.7689C4.49534 98.0408 3.66598 98.9948 2.56017 98.9948C1.45436 98.9948 0.625 98.0408 0.625 96.7689C0.625 95.4969 1.45436 94.543 2.56017 94.543C3.66598 94.543 4.49534 95.4969 4.49534 96.7689Z" fill="#FFCF2D"/>
<path d="M20.9904 96.7689C20.9904 98.0408 20.1611 98.9948 19.0553 98.9948C17.9495 98.9948 17.1201 98.0408 17.1201 96.7689C17.1201 95.4969 17.9495 94.543 19.0553 94.543C20.0689 94.543 20.9904 95.4969 20.9904 96.7689Z" fill="#FFCF2D"/>
<path d="M37.3933 96.7689C37.3933 98.0408 36.5639 98.9948 35.4581 98.9948C34.3523 98.9948 33.5229 98.0408 33.5229 96.7689C33.5229 95.4969 34.3523 94.543 35.4581 94.543C36.5639 94.543 37.3933 95.4969 37.3933 96.7689Z" fill="#FFCF2D"/>
<path d="M53.8884 96.7689C53.8884 98.0408 53.059 98.9948 51.9532 98.9948C50.8474 98.9948 50.0181 98.0408 50.0181 96.7689C50.0181 95.4969 50.8474 94.543 51.9532 94.543C53.059 94.543 53.8884 95.4969 53.8884 96.7689Z" fill="#FFCF2D"/>
<path d="M70.383 96.7689C70.383 98.0408 69.5537 98.9948 68.4479 98.9948C67.3421 98.9948 66.5127 98.0408 66.5127 96.7689C66.5127 95.4969 67.3421 94.543 68.4479 94.543C69.4615 94.543 70.383 95.4969 70.383 96.7689Z" fill="#FFCF2D"/>
<path d="M86.8781 96.7689C86.8781 98.0408 86.0488 98.9948 84.943 98.9948C83.8372 98.9948 83.0078 98.0408 83.0078 96.7689C83.0078 95.4969 83.8372 94.543 84.943 94.543C86.0488 94.543 86.8781 95.4969 86.8781 96.7689Z" fill="#FFCF2D"/>
<path d="M103.281 96.7689C103.281 98.0408 102.452 98.9948 101.346 98.9948C100.24 98.9948 99.4106 98.0408 99.4106 96.7689C99.4106 95.4969 100.24 94.543 101.346 94.543C102.452 94.543 103.281 95.4969 103.281 96.7689Z" fill="#FFCF2D"/>
<path d="M119.776 96.7689C119.776 98.0408 118.947 98.9948 117.841 98.9948C116.735 98.9948 115.906 98.0408 115.906 96.7689C115.906 95.4969 116.735 94.543 117.841 94.543C118.947 94.543 119.776 95.4969 119.776 96.7689Z" fill="#FFCF2D"/>
<path d="M136.271 96.7689C136.271 98.0408 135.441 98.9948 134.336 98.9948C133.23 98.9948 132.4 98.0408 132.4 96.7689C132.4 95.4969 133.23 94.543 134.336 94.543C135.349 94.543 136.271 95.4969 136.271 96.7689Z" fill="#FFCF2D"/>
<path d="M4.49533 112.456C4.49533 113.728 3.66597 114.682 2.56016 114.682C1.45436 114.682 0.625 113.728 0.625 112.456C0.625 111.184 1.45436 110.23 2.56016 110.23C3.66597 110.23 4.49533 111.29 4.49533 112.456Z" fill="#FFCF2D"/>
<path d="M20.9904 112.456C20.9904 113.728 20.1611 114.682 19.0553 114.682C17.9495 114.682 17.1201 113.728 17.1201 112.456C17.1201 111.184 17.9495 110.23 19.0553 110.23C20.0689 110.23 20.9904 111.29 20.9904 112.456Z" fill="#FFCF2D"/>
<path d="M37.3933 112.456C37.3933 113.728 36.5639 114.682 35.4581 114.682C34.3523 114.682 33.5229 113.728 33.5229 112.456C33.5229 111.184 34.3523 110.23 35.4581 110.23C36.5639 110.23 37.3933 111.29 37.3933 112.456Z" fill="#FFCF2D"/>
<path d="M53.8884 112.456C53.8884 113.728 53.059 114.682 51.9532 114.682C50.8474 114.682 50.0181 113.728 50.0181 112.456C50.0181 111.184 50.8474 110.23 51.9532 110.23C53.059 110.23 53.8884 111.29 53.8884 112.456Z" fill="#FFCF2D"/>
<path d="M70.383 112.456C70.383 113.728 69.5536 114.682 68.4478 114.682C67.342 114.682 66.5127 113.728 66.5127 112.456C66.5127 111.184 67.342 110.23 68.4478 110.23C69.4615 110.23 70.383 111.29 70.383 112.456Z" fill="#FFCF2D"/>
<path d="M86.8781 112.456C86.8781 113.728 86.0488 114.682 84.943 114.682C83.8372 114.682 83.0078 113.728 83.0078 112.456C83.0078 111.184 83.8372 110.23 84.943 110.23C86.0488 110.23 86.8781 111.29 86.8781 112.456Z" fill="#FFCF2D"/>
<path d="M103.281 112.456C103.281 113.728 102.452 114.682 101.346 114.682C100.24 114.682 99.4106 113.728 99.4106 112.456C99.4106 111.184 100.24 110.23 101.346 110.23C102.452 110.23 103.281 111.29 103.281 112.456Z" fill="#FFCF2D"/>
<path d="M119.776 112.456C119.776 113.728 118.947 114.682 117.841 114.682C116.735 114.682 115.906 113.728 115.906 112.456C115.906 111.184 116.735 110.23 117.841 110.23C118.947 110.23 119.776 111.29 119.776 112.456Z" fill="#FFCF2D"/>
<path d="M136.271 112.456C136.271 113.728 135.441 114.682 134.336 114.682C133.23 114.682 132.4 113.728 132.4 112.456C132.4 111.184 133.23 110.23 134.336 110.23C135.349 110.23 136.271 111.29 136.271 112.456Z" fill="#FFCF2D"/>
</svg>
